<svg xmlns="http://www.w3.org/2000/svg" xmlns:xlink="http://www.w3.org/1999/xlink" viewBox="0 0 116.1 40.54"><defs><style>.cls-1,.cls-2{fill:#fff;}.cls-2{font-size:36.59px;font-family:Eurostile, Eurostile;}.cls-3{clip-path:url(#clip-path);}</style><clipPath id="clip-path"><path class="cls-1" d="M22.11,18.86l-10-6.79a2.14,2.14,0,0,0-3.08.75,2.22,2.22,0,0,0,.78,2.85L18,21.25a2,2,0,0,1,.88,1.54l.31,4.58a1.87,1.87,0,0,1-1.3,1.9l-4.16,1.32a2.48,2.48,0,0,1-2.15-.32l-8-5.44a2.25,2.25,0,0,0-3.15.57,2.14,2.14,0,0,0,.62,2.88l10,6.79a2.12,2.12,0,0,0,1.2.37,2.17,2.17,0,0,0,.4,0h0l.24-.06,9.3-2.94a2.14,2.14,0,0,0,1.49-2.18L23,20.48A2.14,2.14,0,0,0,22.11,18.86Z"/></clipPath></defs><title>Recurso 2</title><g id="Capa_2" data-name="Capa 2"><g id="Capa_1-2" data-name="Capa 1"><text class="cls-2" transform="translate(29.72 32.01)">skizzl</text><path class="cls-1" d="M22.11,18.86l-10-6.79a2.14,2.14,0,0,0-3.08.75,2.22,2.22,0,0,0,.78,2.85L18,21.25a2,2,0,0,1,.88,1.54l.31,4.58a1.87,1.87,0,0,1-1.3,1.9l-4.16,1.32a2.48,2.48,0,0,1-2.15-.32l-8-5.44a2.25,2.25,0,0,0-3.15.57,2.14,2.14,0,0,0,.62,2.88l10,6.79a2.12,2.12,0,0,0,1.2.37,2.17,2.17,0,0,0,.4,0h0l.24-.06,9.3-2.94a2.14,2.14,0,0,0,1.49-2.18L23,20.48A2.14,2.14,0,0,0,22.11,18.86Z"/><g class="cls-3"><path class="cls-1" d="M14,27.4a2.3,2.3,0,0,1-1.3-.4l-10-6.79a2.3,2.3,0,0,1-1-1.76L1.09,8.73A2.31,2.31,0,0,1,2.7,6.37L12,3.43a2.3,2.3,0,0,1,2,.29l9.85,6.72h0a2.4,2.4,0,0,1,.84,3.07,2.31,2.31,0,0,1-3.33.82l-8.21-5.6a2,2,0,0,0-1.75-.26L7.12,9.82a1.73,1.73,0,0,0-1.21,1.77L6.22,16a2,2,0,0,0,.89,1.56l8.2,5.59a2.31,2.31,0,0,1-.87,4.18A2.34,2.34,0,0,1,14,27.4ZM12.7,3.67a2,2,0,0,0-.6.09L2.81,6.7a2,2,0,0,0-1.36,2l.65,9.73a2,2,0,0,0,.85,1.49l10,6.79a2,2,0,0,0,2.21-3.24l-8.2-5.59a2.39,2.39,0,0,1-1-1.82l-.3-4.45A2.08,2.08,0,0,1,7,9.48l4.26-1.35a2.36,2.36,0,0,1,2.06.3L21.55,14a2,2,0,0,0,2.83-.69,2.05,2.05,0,0,0-.73-2.62L13.8,4A2,2,0,0,0,12.7,3.67Z"/><path class="cls-1" d="M12.26,35.61a2.3,2.3,0,0,1-1.3-.4L1,28.42a2.31,2.31,0,0,1-.67-3.11,2.21,2.21,0,0,1,1.44-1,2.53,2.53,0,0,1,2,.38l8,5.44a2.29,2.29,0,0,0,2,.29l4.16-1.32A1.69,1.69,0,0,0,19,27.38l-.31-4.58a1.84,1.84,0,0,0-.8-1.41L9.76,15.82a2.4,2.4,0,0,1-.84-3.08,2.31,2.31,0,0,1,3.33-.81l10,6.79a2.3,2.3,0,0,1,1,1.75l.65,9.73a2.31,2.31,0,0,1-1.61,2.36L13,35.51l-.26.07A2.37,2.37,0,0,1,12.26,35.61Zm-9.95-11a2.17,2.17,0,0,0-.46,0,1.86,1.86,0,0,0-1.22.84,2,2,0,0,0,.57,2.64l10,6.79a2,2,0,0,0,1.47.31l.23-.06,9.3-2.95a2,2,0,0,0,1.36-2l-.65-9.73A2,2,0,0,0,22,19h0l-10-6.79a2,2,0,0,0-1.57-.28,1.94,1.94,0,0,0-1.26,1A2.05,2.05,0,0,0,10,15.53l8.18,5.58a2.19,2.19,0,0,1,1,1.67l.31,4.58A2,2,0,0,1,18,29.44l-4.16,1.32a2.64,2.64,0,0,1-2.3-.34L3.54,25A2.18,2.18,0,0,0,2.32,24.61Z"/></g><path class="cls-1" d="M23.75,10.58,13.9,3.86a2.14,2.14,0,0,0-1.85-.27L2.75,6.54A2.14,2.14,0,0,0,1.27,8.72l.65,9.73a2.14,2.14,0,0,0,.93,1.62l10,6.79a2.12,2.12,0,0,0,1.2.37,2.16,2.16,0,0,0,.4,0,2.13,2.13,0,0,0,.81-3.86L7,17.74A2.23,2.23,0,0,1,6,16l-.3-4.45A1.91,1.91,0,0,1,7.07,9.65L11.33,8.3a2.2,2.2,0,0,1,1.91.28l8.21,5.6a2.14,2.14,0,0,0,3.08-.75A2.22,2.22,0,0,0,23.75,10.58Z"/></g></g></svg>