<svg xmlns="http://www.w3.org/2000/svg" xmlns:xlink="http://www.w3.org/1999/xlink" viewBox="0 0 113.65 32.3"><defs><style>.cls-1{fill:#fff;}.cls-2{clip-path:url(#clip-path);}</style><clipPath id="clip-path"><path class="cls-1" d="M22.11,15.54l-10-6.79a2.14,2.14,0,0,0-3.08.75,2.22,2.22,0,0,0,.78,2.85L18,17.93a2,2,0,0,1,.88,1.54l.31,4.58a1.87,1.87,0,0,1-1.3,1.9l-4.16,1.32A2.48,2.48,0,0,1,11.61,27l-8-5.44a2.25,2.25,0,0,0-3.15.57A2.14,2.14,0,0,0,1.11,25l10,6.79a2.12,2.12,0,0,0,1.2.37,2.17,2.17,0,0,0,.4,0h0l.24-.06,9.3-2.94a2.14,2.14,0,0,0,1.49-2.18L23,17.17A2.14,2.14,0,0,0,22.11,15.54Z"/></clipPath></defs><title>Recurso 3</title><g id="Capa_2" data-name="Capa 2"><g id="Capa_1-2" data-name="Capa 1"><path class="cls-1" d="M47.43,14.5h-3v-.73c0-1.94-1.46-1.94-4.5-1.94-3.62,0-5.38,0-5.38,2.34,0,3.44,1,3.18,4,3.33,4.94.29,9.44-.48,9.44,5.78,0,5.42-3.73,5.64-8,5.64s-8.53-.22-8.53-4.5V22.62h3v1.5c0,1.83,1.13,2.23,5.53,2.23,2,0,5,.44,5-3,0-3.59-1.5-2.93-5-3.15-4.17-.29-8.38.15-8.38-5.31s3.18-5.67,8.38-5.67c3.37,0,7.5.15,7.5,4.5Z"/><path class="cls-1" d="M54.75,17.13h1.17l6.92-7.65h3.55L58.15,18.3l9.73,10.39H64.08l-8.16-9.22H54.75v9.22H51.86V1.25h2.89Z"/><path class="cls-1" d="M72.56,4.43H69.67V1.25h2.89Zm0,24.26H69.67V9.48h2.89Z"/><path class="cls-1" d="M90.78,12.16,79.33,26.35H90.78v2.34H76V26l11.45-14.2H76.92V9.48H90.78Z"/><path class="cls-1" d="M107.39,12.16,95.94,26.35h11.45v2.34H92.57V26L104,11.83H93.53V9.48h13.87Z"/><path class="cls-1" d="M113.65,28.69h-2.89V1.25h2.89Z"/><path class="cls-1" d="M22.11,15.54l-10-6.79a2.14,2.14,0,0,0-3.08.75,2.22,2.22,0,0,0,.78,2.85L18,17.93a2,2,0,0,1,.88,1.54l.31,4.58a1.87,1.87,0,0,1-1.3,1.9l-4.16,1.32A2.48,2.48,0,0,1,11.61,27l-8-5.44a2.25,2.25,0,0,0-3.15.57A2.14,2.14,0,0,0,1.11,25l10,6.79a2.12,2.12,0,0,0,1.2.37,2.17,2.17,0,0,0,.4,0h0l.24-.06,9.3-2.94a2.14,2.14,0,0,0,1.49-2.18L23,17.17A2.14,2.14,0,0,0,22.11,15.54Z"/><g class="cls-2"><path class="cls-1" d="M14,24.09a2.3,2.3,0,0,1-1.3-.4l-10-6.79a2.3,2.3,0,0,1-1-1.76L1.09,5.41A2.31,2.31,0,0,1,2.7,3.05L12,.11A2.3,2.3,0,0,1,14,.4l9.85,6.72h0a2.4,2.4,0,0,1,.84,3.07,2.31,2.31,0,0,1-3.33.82l-8.21-5.6a2,2,0,0,0-1.75-.26L7.12,6.5A1.73,1.73,0,0,0,5.92,8.27l.3,4.45a2,2,0,0,0,.89,1.56l8.2,5.59A2.31,2.31,0,0,1,14.44,24,2.34,2.34,0,0,1,14,24.09ZM12.7.35a2,2,0,0,0-.6.09L2.81,3.39a2,2,0,0,0-1.36,2l.65,9.73a2,2,0,0,0,.85,1.49l10,6.79a2,2,0,0,0,2.21-3.24l-8.2-5.59a2.39,2.39,0,0,1-1-1.82l-.3-4.45A2.08,2.08,0,0,1,7,6.17l4.26-1.35a2.36,2.36,0,0,1,2.06.3l8.21,5.6A2,2,0,0,0,24.38,10a2.05,2.05,0,0,0-.73-2.62L13.8.69A2,2,0,0,0,12.7.35Z"/><path class="cls-1" d="M12.26,32.3a2.3,2.3,0,0,1-1.3-.4L1,25.11A2.31,2.31,0,0,1,.34,22a2.21,2.21,0,0,1,1.44-1,2.53,2.53,0,0,1,2,.38l8,5.44a2.29,2.29,0,0,0,2,.29l4.16-1.32A1.69,1.69,0,0,0,19,24.06l-.31-4.58a1.84,1.84,0,0,0-.8-1.41L9.76,12.5a2.4,2.4,0,0,1-.84-3.08,2.31,2.31,0,0,1,3.33-.81l10,6.79a2.3,2.3,0,0,1,1,1.75l.65,9.73a2.31,2.31,0,0,1-1.61,2.36L13,32.19l-.26.07A2.37,2.37,0,0,1,12.26,32.3Zm-9.95-11a2.17,2.17,0,0,0-.46,0,1.86,1.86,0,0,0-1.22.84,2,2,0,0,0,.57,2.64l10,6.79a2,2,0,0,0,1.47.31l.23-.06,9.3-2.95a2,2,0,0,0,1.36-2l-.65-9.73A2,2,0,0,0,22,15.69h0l-10-6.79a2,2,0,0,0-1.57-.28,1.94,1.94,0,0,0-1.26,1A2.05,2.05,0,0,0,10,12.21l8.18,5.58a2.19,2.19,0,0,1,1,1.67L19.4,24A2,2,0,0,1,18,26.12l-4.16,1.32a2.64,2.64,0,0,1-2.3-.34l-8-5.44A2.18,2.18,0,0,0,2.32,21.29Z"/></g><path class="cls-1" d="M23.75,7.26,13.9.55A2.14,2.14,0,0,0,12.05.28L2.75,3.22A2.14,2.14,0,0,0,1.27,5.4l.65,9.73a2.14,2.14,0,0,0,.93,1.62l10,6.79a2.12,2.12,0,0,0,1.2.37,2.16,2.16,0,0,0,.4,0A2.13,2.13,0,0,0,15.21,20L7,14.42a2.23,2.23,0,0,1-1-1.69l-.3-4.45A1.91,1.91,0,0,1,7.07,6.33L11.33,5a2.2,2.2,0,0,1,1.91.28l8.21,5.6a2.14,2.14,0,0,0,3.08-.75A2.22,2.22,0,0,0,23.75,7.26Z"/></g></g></svg>